<svg width="12" height="12" viewBox="0 0 12 12" fill="none" xmlns="http://www.w3.org/2000/svg">
<g clip-path="url(#clip0_3639_5888)">
<path d="M9.64522 4.98947C9.80728 3.90587 8.9823 3.32339 7.8542 2.93482L8.22017 1.46698L7.32665 1.24434L6.9704 2.67353C6.73549 2.61494 6.49427 2.55974 6.25451 2.50502L6.61335 1.06639L5.72039 0.84375L5.35422 2.31111C5.15984 2.26685 4.96892 2.22311 4.78369 2.17702L4.78472 2.1724L3.55254 1.86471L3.31486 2.81904C3.31486 2.81904 3.97777 2.971 3.9638 2.98035C4.32563 3.07066 4.39106 3.31018 4.38019 3.50002L3.96332 5.17223C3.98824 5.17856 4.02056 5.18772 4.05622 5.20204C4.02641 5.19464 3.99469 5.18656 3.96177 5.17868L3.37746 7.52121C3.33324 7.63114 3.22101 7.79611 2.96804 7.73346C2.97699 7.74644 2.31861 7.5714 2.31861 7.5714L1.875 8.59418L3.03777 8.88405C3.25408 8.9383 3.46606 8.99505 3.67481 9.04843L3.30507 10.5331L4.19755 10.7557L4.56371 9.28683C4.80753 9.35302 5.04414 9.41407 5.27578 9.47162L4.91085 10.9336L5.80441 11.1562L6.17411 9.67437C7.69775 9.96272 8.8434 9.84646 9.32562 8.46834C9.71419 7.35878 9.30628 6.71879 8.5047 6.30145C9.08853 6.1668 9.52796 5.78269 9.64522 4.98947ZM7.60374 7.85215C7.3276 8.9617 5.45946 8.36191 4.85378 8.2115L5.34443 6.24457C5.95008 6.39577 7.89229 6.69499 7.60374 7.85215ZM7.88007 4.97339C7.62818 5.98265 6.0733 5.4699 5.56891 5.34417L6.01376 3.56028C6.51814 3.68601 8.1424 3.92067 7.88007 4.97339Z" fill="white"/>
</g>
<defs>
<clipPath id="clip0_3639_5888">
<rect width="11" height="11" fill="white" transform="translate(0.5 0.5)"/>
</clipPath>
</defs>
</svg>
